<svg width="640" height="480" viewBox="0 0 640 480" fill="none" xmlns="http://www.w3.org/2000/svg">
  <!-- Background dots -->
  <circle cx="60" cy="10" r="3" fill="#E0E0E0"/>
  <circle cx="265" cy="15" r="2" fill="#E0E0E0"/>
  <circle cx="425" cy="235" r="3" fill="#E0E0E0"/>
  <circle cx="585" cy="270" r="2" fill="#E0E0E0"/>
  <circle cx="440" cy="265" r="2" fill="#E0E0E0"/>
  <circle cx="410" cy="290" r="2" fill="#E0E0E0"/>
  <circle cx="625" cy="250" r="2" fill="#E0E0E0"/>
  <circle cx="675" cy="225" r="3" fill="#E0E0E0"/>
  <circle cx="897" cy="270" r="2" fill="#E0E0E0"/>
  <circle cx="920" cy="220" r="3" fill="#E0E0E0"/>
  <circle cx="967" cy="225" r="2" fill="#E0E0E0"/>
  <circle cx="374" cy="270" r="2" fill="#E0E0E0"/>
  <circle cx="617" cy="225" r="2" fill="#E0E0E0"/>
  <circle cx="540" cy="270" r="2" fill="#E0E0E0"/>
  <circle cx="390" cy="310" r="2" fill="#E0E0E0"/>
  
  <!-- Floating documents -->
  <g opacity="0.6">
    <rect x="100" y="40" width="30" height="40" rx="2" fill="#F5F5DC" transform="rotate(-15 115 60)"/>
    <line x1="108" y1="50" x2="122" y2="48" stroke="#D4D4A8" stroke-width="1.5"/>
    <line x1="108" y1="56" x2="122" y2="54" stroke="#D4D4A8" stroke-width="1.5"/>
    <line x1="108" y1="62" x2="118" y2="60" stroke="#D4D4A8" stroke-width="1.5"/>
  </g>
  
  <g opacity="0.6">
    <rect x="480" y="260" width="25" height="35" rx="2" fill="#F5F5DC" transform="rotate(20 492 277)"/>
    <line x1="486" y1="270" x2="498" y2="273" stroke="#D4D4A8" stroke-width="1.2"/>
    <line x1="486" y1="275" x2="498" y2="278" stroke="#D4D4A8" stroke-width="1.2"/>
    <line x1="486" y1="280" x2="495" y2="282" stroke="#D4D4A8" stroke-width="1.2"/>
  </g>
  
  <g opacity="0.6">
    <rect x="390" y="60" width="28" height="38" rx="2" fill="#F5F5DC" transform="rotate(10 404 79)"/>
    <line x1="396" y1="70" x2="412" y2="72" stroke="#D4D4A8" stroke-width="1.3"/>
    <line x1="396" y1="76" x2="412" y2="78" stroke="#D4D4A8" stroke-width="1.3"/>
    <line x1="396" y1="82" x2="408" y2="84" stroke="#D4D4A8" stroke-width="1.3"/>
  </g>
  
  <g opacity="0.6">
    <rect x="120" y="290" width="22" height="30" rx="2" fill="#F5F5DC" transform="rotate(-20 131 305)"/>
    <line x1="125" y1="298" x2="137" y2="296" stroke="#D4D4A8" stroke-width="1"/>
    <line x1="125" y1="303" x2="137" y2="301" stroke="#D4D4A8" stroke-width="1"/>
    <line x1="125" y1="308" x2="134" y2="306" stroke="#D4D4A8" stroke-width="1"/>
  </g>
  
  <g opacity="0.6">
    <rect x="540" y="100" width="26" height="36" rx="2" fill="#F5F5DC" transform="rotate(-8 553 118)"/>
    <line x1="546" y1="110" x2="560" y2="109" stroke="#D4D4A8" stroke-width="1.2"/>
    <line x1="546" y1="116" x2="560" y2="115" stroke="#D4D4A8" stroke-width="1.2"/>
    <line x1="546" y1="122" x2="557" y2="121" stroke="#D4D4A8" stroke-width="1.2"/>
  </g>
  
  <!-- Laptop base shadow -->
  <ellipse cx="220" cy="310" rx="90" ry="15" fill="#D4D4F0" opacity="0.3"/>
  
  <!-- Laptop -->
  <g>
    <!-- Laptop base -->
    <path d="M130 300 L310 300 L320 320 L120 320 Z" fill="#7C7CFF"/>
    <path d="M130 300 L310 300 L320 320 L120 320 Z" fill="url(#laptopGradient)"/>
    
    <!-- Laptop screen -->
    <rect x="145" y="180" width="150" height="120" rx="8" fill="#6B6BEE"/>
    <rect x="145" y="180" width="150" height="120" rx="8" fill="url(#screenGradient)"/>
    
    <!-- Screen content -->
    <rect x="155" y="190" width="130" height="100" rx="4" fill="#8B8BFF"/>
    
    <!-- Upload arrow on screen -->
    <g transform="translate(220, 230)">
      <path d="M0 20 L0 -20 M-12 -8 L0 -20 L12 -8" stroke="white" stroke-width="4" stroke-linecap="round" stroke-linejoin="round" fill="none"/>
    </g>
    
    <!-- Keyboard -->
    <rect x="140" y="295" width="160" height="5" rx="1" fill="#5B5BDD"/>
  </g>
  
  <!-- Dashed arrow -->
  <path d="M 310 240 Q 380 200 420 240" stroke="#7C7CFF" stroke-width="3" stroke-dasharray="8 6" fill="none" stroke-linecap="round"/>
  <path d="M 420 240 L 410 235 M 420 240 L 415 250" stroke="#7C7CFF" stroke-width="3" stroke-linecap="round"/>
  
  <!-- Folder base shadow -->
  <ellipse cx="480" cy="310" rx="85" ry="14" fill="#D4D4F0" opacity="0.3"/>
  
  <!-- Folder -->
  <g>
    <!-- Folder tab -->
    <path d="M 400 220 L 440 220 L 450 200 L 520 200 L 530 220 L 560 220 L 560 310 L 400 310 Z" fill="#7C7CFF"/>
    <path d="M 400 220 L 440 220 L 450 200 L 520 200 L 530 220 L 560 220 L 560 310 L 400 310 Z" fill="url(#folderGradient)"/>
    
    <!-- Folder front -->
    <path d="M 405 230 L 555 230 L 555 305 L 405 305 Z" fill="#8B8BFF"/>
    
    <!-- Documents in folder -->
    <g opacity="0.8">
      <rect x="420" y="245" width="50" height="60" rx="2" fill="white"/>
      <line x1="428" y1="255" x2="462" y2="255" stroke="#E0E0E0" stroke-width="2"/>
      <line x1="428" y1="263" x2="462" y2="263" stroke="#E0E0E0" stroke-width="2"/>
      <line x1="428" y1="271" x2="455" y2="271" stroke="#E0E0E0" stroke-width="2"/>
      <line x1="428" y1="279" x2="462" y2="279" stroke="#E0E0E0" stroke-width="2"/>
      
      <rect x="475" y="250" width="50" height="60" rx="2" fill="white"/>
      <line x1="483" y1="260" x2="517" y2="260" stroke="#E0E0E0" stroke-width="2"/>
      <line x1="483" y1="268" x2="517" y2="268" stroke="#E0E0E0" stroke-width="2"/>
      <line x1="483" y1="276" x2="510" y2="276" stroke="#E0E0E0" stroke-width="2"/>
      <line x1="483" y1="284" x2="517" y2="284" stroke="#E0E0E0" stroke-width="2"/>
    </g>
    
    <!-- Folder plant decoration -->
    <path d="M 480 310 Q 475 295 480 285 Q 485 295 480 310" fill="#6B6BEE"/>
    <path d="M 480 310 Q 490 295 495 285 Q 488 295 480 310" fill="#6B6BEE"/>
    <path d="M 480 310 Q 470 295 465 285 Q 472 295 480 310" fill="#6B6BEE"/>
  </g>
  
  <!-- Gradients -->
  <defs>
    <linearGradient id="laptopGradient" x1="0%" y1="0%" x2="0%" y2="100%">
      <stop offset="0%" style="stop-color:#8B8BFF;stop-opacity:1" />
      <stop offset="100%" style="stop-color:#7C7CFF;stop-opacity:1" />
    </linearGradient>
    <linearGradient id="screenGradient" x1="0%" y1="0%" x2="0%" y2="100%">
      <stop offset="0%" style="stop-color:#7C7CFF;stop-opacity:1" />
      <stop offset="100%" style="stop-color:#6B6BEE;stop-opacity:1" />
    </linearGradient>
    <linearGradient id="folderGradient" x1="0%" y1="0%" x2="0%" y2="100%">
      <stop offset="0%" style="stop-color:#8B8BFF;stop-opacity:1" />
      <stop offset="100%" style="stop-color:#7C7CFF;stop-opacity:1" />
    </linearGradient>
  </defs>
</svg>
